<mxfile host="app.diagrams.net" modified="2020-10-01T11:06:33.723Z" agent="5.0 (Macintosh; Intel Mac OS X 10_15_7) AppleWebKit/537.36 (KHTML, like Gecko) Chrome/85.0.4183.121 Safari/537.36" etag="SwA9K52XKZjVzzQw5--M" version="13.6.3" type="github">
  <diagram id="Q27-jhYSoCZHdXZTkkZn" name="第 1 页">
    <mxGraphModel dx="946" dy="591" grid="0" gridSize="10" guides="1" tooltips="1" connect="1" arrows="1" fold="1" page="1" pageScale="1" pageWidth="1920" pageHeight="2200" math="0" shadow="0">
      <root>
        <mxCell id="0" />
        <mxCell id="1" parent="0" />
        <mxCell id="Pagb_1e_iWBXcoNiZ67y-1" value="" style="endArrow=classic;html=1;exitX=0.408;exitY=-0.1;exitDx=0;exitDy=0;exitPerimeter=0;" edge="1" parent="1" source="Pagb_1e_iWBXcoNiZ67y-3">
          <mxGeometry width="50" height="50" relative="1" as="geometry">
            <mxPoint x="636" y="1926" as="sourcePoint" />
            <mxPoint x="470" y="1834" as="targetPoint" />
          </mxGeometry>
        </mxCell>
        <mxCell id="Pagb_1e_iWBXcoNiZ67y-2" value="" style="shape=table;html=1;whiteSpace=wrap;startSize=0;container=1;collapsible=0;childLayout=tableLayout;strokeColor=#333333;" vertex="1" parent="1">
          <mxGeometry x="464" y="1933" width="360" height="40" as="geometry" />
        </mxCell>
        <mxCell id="Pagb_1e_iWBXcoNiZ67y-3" style="shape=partialRectangle;html=1;whiteSpace=wrap;collapsible=0;dropTarget=0;pointerEvents=0;fillColor=none;top=0;left=0;bottom=0;right=0;points=[[0,0.5],[1,0.5]];portConstraint=eastwest;" vertex="1" parent="Pagb_1e_iWBXcoNiZ67y-2">
          <mxGeometry width="360" height="40" as="geometry" />
        </mxCell>
        <mxCell id="Pagb_1e_iWBXcoNiZ67y-4" value="fleet1" style="shape=partialRectangle;html=1;whiteSpace=wrap;connectable=0;fillColor=none;top=0;left=0;bottom=0;right=0;overflow=hidden;" vertex="1" parent="Pagb_1e_iWBXcoNiZ67y-3">
          <mxGeometry width="60" height="40" as="geometry" />
        </mxCell>
        <mxCell id="Pagb_1e_iWBXcoNiZ67y-5" value="fleet2" style="shape=partialRectangle;html=1;whiteSpace=wrap;connectable=0;fillColor=none;top=0;left=0;bottom=0;right=0;overflow=hidden;" vertex="1" parent="Pagb_1e_iWBXcoNiZ67y-3">
          <mxGeometry x="60" width="60" height="40" as="geometry" />
        </mxCell>
        <mxCell id="Pagb_1e_iWBXcoNiZ67y-6" value="fleet3" style="shape=partialRectangle;html=1;whiteSpace=wrap;connectable=0;fillColor=none;top=0;left=0;bottom=0;right=0;overflow=hidden;" vertex="1" parent="Pagb_1e_iWBXcoNiZ67y-3">
          <mxGeometry x="120" width="60" height="40" as="geometry" />
        </mxCell>
        <mxCell id="Pagb_1e_iWBXcoNiZ67y-7" value="fleet4" style="shape=partialRectangle;html=1;whiteSpace=wrap;connectable=0;fillColor=none;top=0;left=0;bottom=0;right=0;overflow=hidden;" vertex="1" parent="Pagb_1e_iWBXcoNiZ67y-3">
          <mxGeometry x="180" width="60" height="40" as="geometry" />
        </mxCell>
        <mxCell id="Pagb_1e_iWBXcoNiZ67y-8" value="fleet5" style="shape=partialRectangle;html=1;whiteSpace=wrap;connectable=0;fillColor=none;top=0;left=0;bottom=0;right=0;overflow=hidden;" vertex="1" parent="Pagb_1e_iWBXcoNiZ67y-3">
          <mxGeometry x="240" width="60" height="40" as="geometry" />
        </mxCell>
        <mxCell id="Pagb_1e_iWBXcoNiZ67y-9" value="fleet6" style="shape=partialRectangle;html=1;whiteSpace=wrap;connectable=0;fillColor=none;top=0;left=0;bottom=0;right=0;overflow=hidden;" vertex="1" parent="Pagb_1e_iWBXcoNiZ67y-3">
          <mxGeometry x="300" width="60" height="40" as="geometry" />
        </mxCell>
        <mxCell id="Pagb_1e_iWBXcoNiZ67y-10" value="&lt;span style=&quot;color: rgb(89 , 89 , 89) ; font-family: monospace ; font-size: 13px ; text-align: justify ; background-color: rgb(247 , 247 , 247)&quot;&gt;(0,5) 入栈&lt;/span&gt;" style="text;html=1;align=center;verticalAlign=middle;resizable=0;points=[];autosize=1;" vertex="1" parent="1">
          <mxGeometry x="671" y="2029" width="83" height="18" as="geometry" />
        </mxCell>
        <mxCell id="Pagb_1e_iWBXcoNiZ67y-11" value="" style="endArrow=classic;html=1;" edge="1" parent="1">
          <mxGeometry width="50" height="50" relative="1" as="geometry">
            <mxPoint x="667" y="2083" as="sourcePoint" />
            <mxPoint x="667" y="1982" as="targetPoint" />
          </mxGeometry>
        </mxCell>
        <mxCell id="Pagb_1e_iWBXcoNiZ67y-12" value="&lt;span style=&quot;color: rgb(89 , 89 , 89) ; font-family: monospace ; font-size: 13px ; text-align: justify ; background-color: rgb(247 , 247 , 247)&quot;&gt;(0,2) 入栈&lt;/span&gt;" style="text;html=1;align=center;verticalAlign=middle;resizable=0;points=[];autosize=1;" vertex="1" parent="1">
          <mxGeometry x="472" y="1889" width="83" height="18" as="geometry" />
        </mxCell>
        <mxCell id="Pagb_1e_iWBXcoNiZ67y-13" value="" style="shape=table;html=1;whiteSpace=wrap;startSize=0;container=1;collapsible=0;childLayout=tableLayout;strokeColor=#333333;" vertex="1" parent="1">
          <mxGeometry x="376" y="1794" width="193" height="37" as="geometry" />
        </mxCell>
        <mxCell id="Pagb_1e_iWBXcoNiZ67y-14" value="" style="shape=partialRectangle;html=1;whiteSpace=wrap;collapsible=0;dropTarget=0;pointerEvents=0;fillColor=none;top=0;left=0;bottom=0;right=0;points=[[0,0.5],[1,0.5]];portConstraint=eastwest;" vertex="1" parent="Pagb_1e_iWBXcoNiZ67y-13">
          <mxGeometry width="193" height="37" as="geometry" />
        </mxCell>
        <mxCell id="Pagb_1e_iWBXcoNiZ67y-15" value="fleet1" style="shape=partialRectangle;html=1;whiteSpace=wrap;connectable=0;fillColor=none;top=0;left=0;bottom=0;right=0;overflow=hidden;" vertex="1" parent="Pagb_1e_iWBXcoNiZ67y-14">
          <mxGeometry width="64" height="37" as="geometry" />
        </mxCell>
        <mxCell id="Pagb_1e_iWBXcoNiZ67y-16" value="fleet2" style="shape=partialRectangle;html=1;whiteSpace=wrap;connectable=0;fillColor=none;top=0;left=0;bottom=0;right=0;overflow=hidden;" vertex="1" parent="Pagb_1e_iWBXcoNiZ67y-14">
          <mxGeometry x="64" width="65" height="37" as="geometry" />
        </mxCell>
        <mxCell id="Pagb_1e_iWBXcoNiZ67y-17" value="&lt;span&gt;fleet3&lt;/span&gt;" style="shape=partialRectangle;html=1;whiteSpace=wrap;connectable=0;fillColor=none;top=0;left=0;bottom=0;right=0;overflow=hidden;" vertex="1" parent="Pagb_1e_iWBXcoNiZ67y-14">
          <mxGeometry x="129" width="64" height="37" as="geometry" />
        </mxCell>
        <mxCell id="Pagb_1e_iWBXcoNiZ67y-18" value="" style="endArrow=classic;html=1;" edge="1" parent="1">
          <mxGeometry width="50" height="50" relative="1" as="geometry">
            <mxPoint x="444" y="1789" as="sourcePoint" />
            <mxPoint x="315" y="1719" as="targetPoint" />
          </mxGeometry>
        </mxCell>
        <mxCell id="Pagb_1e_iWBXcoNiZ67y-19" value="&lt;span style=&quot;color: rgb(89 , 89 , 89) ; font-family: monospace ; font-size: 13px ; text-align: justify ; background-color: rgb(247 , 247 , 247)&quot;&gt;(0,1) 入栈&lt;/span&gt;" style="text;html=1;align=center;verticalAlign=middle;resizable=0;points=[];autosize=1;" vertex="1" parent="1">
          <mxGeometry x="292.5" y="1761" width="83" height="18" as="geometry" />
        </mxCell>
        <mxCell id="Pagb_1e_iWBXcoNiZ67y-20" value="" style="shape=table;html=1;whiteSpace=wrap;startSize=0;container=1;collapsible=0;childLayout=tableLayout;strokeColor=#333333;" vertex="1" parent="1">
          <mxGeometry x="281" y="1672" width="120" height="40" as="geometry" />
        </mxCell>
        <mxCell id="Pagb_1e_iWBXcoNiZ67y-21" value="" style="shape=partialRectangle;html=1;whiteSpace=wrap;collapsible=0;dropTarget=0;pointerEvents=0;fillColor=none;top=0;left=0;bottom=0;right=0;points=[[0,0.5],[1,0.5]];portConstraint=eastwest;" vertex="1" parent="Pagb_1e_iWBXcoNiZ67y-20">
          <mxGeometry width="120" height="40" as="geometry" />
        </mxCell>
        <mxCell id="Pagb_1e_iWBXcoNiZ67y-22" value="fleet1" style="shape=partialRectangle;html=1;whiteSpace=wrap;connectable=0;fillColor=none;top=0;left=0;bottom=0;right=0;overflow=hidden;" vertex="1" parent="Pagb_1e_iWBXcoNiZ67y-21">
          <mxGeometry width="60" height="40" as="geometry" />
        </mxCell>
        <mxCell id="Pagb_1e_iWBXcoNiZ67y-23" value="fleet2" style="shape=partialRectangle;html=1;whiteSpace=wrap;connectable=0;fillColor=none;top=0;left=0;bottom=0;right=0;overflow=hidden;" vertex="1" parent="Pagb_1e_iWBXcoNiZ67y-21">
          <mxGeometry x="60" width="60" height="40" as="geometry" />
        </mxCell>
        <mxCell id="Pagb_1e_iWBXcoNiZ67y-24" value="" style="endArrow=classic;html=1;" edge="1" parent="1">
          <mxGeometry width="50" height="50" relative="1" as="geometry">
            <mxPoint x="295" y="1664" as="sourcePoint" />
            <mxPoint x="206" y="1602" as="targetPoint" />
          </mxGeometry>
        </mxCell>
        <mxCell id="Pagb_1e_iWBXcoNiZ67y-25" value="&lt;span style=&quot;color: rgb(89 , 89 , 89) ; font-family: monospace ; font-size: 13px ; text-align: justify ; background-color: rgb(247 , 247 , 247)&quot;&gt;(0,0) 入栈&lt;/span&gt;" style="text;html=1;align=center;verticalAlign=middle;resizable=0;points=[];autosize=1;" vertex="1" parent="1">
          <mxGeometry x="167" y="1626" width="83" height="18" as="geometry" />
        </mxCell>
        <mxCell id="Pagb_1e_iWBXcoNiZ67y-26" value="" style="endArrow=classic;html=1;" edge="1" parent="1">
          <mxGeometry width="50" height="50" relative="1" as="geometry">
            <mxPoint x="338" y="1669" as="sourcePoint" />
            <mxPoint x="404" y="1609" as="targetPoint" />
          </mxGeometry>
        </mxCell>
        <mxCell id="Pagb_1e_iWBXcoNiZ67y-27" value="" style="shape=table;html=1;whiteSpace=wrap;startSize=0;container=1;collapsible=0;childLayout=tableLayout;strokeColor=#333333;" vertex="1" parent="1">
          <mxGeometry x="387" y="1562" width="60" height="40" as="geometry" />
        </mxCell>
        <mxCell id="Pagb_1e_iWBXcoNiZ67y-28" value="" style="shape=partialRectangle;html=1;whiteSpace=wrap;collapsible=0;dropTarget=0;pointerEvents=0;fillColor=none;top=0;left=0;bottom=0;right=0;points=[[0,0.5],[1,0.5]];portConstraint=eastwest;" vertex="1" parent="Pagb_1e_iWBXcoNiZ67y-27">
          <mxGeometry width="60" height="40" as="geometry" />
        </mxCell>
        <mxCell id="Pagb_1e_iWBXcoNiZ67y-29" value="fleet2" style="shape=partialRectangle;html=1;whiteSpace=wrap;connectable=0;fillColor=none;top=0;left=0;bottom=0;right=0;overflow=hidden;" vertex="1" parent="Pagb_1e_iWBXcoNiZ67y-28">
          <mxGeometry width="60" height="40" as="geometry" />
        </mxCell>
        <mxCell id="Pagb_1e_iWBXcoNiZ67y-30" value="&lt;span style=&quot;color: rgb(89 , 89 , 89) ; font-family: monospace ; font-size: 13px ; text-align: justify ; background-color: rgb(247 , 247 , 247)&quot;&gt;(1,1) 入栈&lt;/span&gt;" style="text;html=1;align=center;verticalAlign=middle;resizable=0;points=[];autosize=1;" vertex="1" parent="1">
          <mxGeometry x="375.5" y="1634" width="83" height="18" as="geometry" />
        </mxCell>
        <mxCell id="Pagb_1e_iWBXcoNiZ67y-31" value="&lt;font color=&quot;#ff0000&quot;&gt;step 1&lt;/font&gt;" style="text;html=1;strokeColor=none;fillColor=none;align=center;verticalAlign=middle;whiteSpace=wrap;rounded=0;" vertex="1" parent="1">
          <mxGeometry x="620" y="2027" width="40" height="20" as="geometry" />
        </mxCell>
        <mxCell id="Pagb_1e_iWBXcoNiZ67y-32" value="&lt;font color=&quot;#ff0000&quot;&gt;step 2&lt;/font&gt;" style="text;html=1;strokeColor=none;fillColor=none;align=center;verticalAlign=middle;whiteSpace=wrap;rounded=0;" vertex="1" parent="1">
          <mxGeometry x="435.75" y="1888" width="40" height="20" as="geometry" />
        </mxCell>
        <mxCell id="Pagb_1e_iWBXcoNiZ67y-33" value="&lt;font color=&quot;#ff0000&quot;&gt;step 3&lt;/font&gt;" style="text;html=1;strokeColor=none;fillColor=none;align=center;verticalAlign=middle;whiteSpace=wrap;rounded=0;" vertex="1" parent="1">
          <mxGeometry x="262" y="1761" width="40" height="20" as="geometry" />
        </mxCell>
        <mxCell id="Pagb_1e_iWBXcoNiZ67y-34" value="&lt;font color=&quot;#ff0000&quot;&gt;step 4&lt;/font&gt;" style="text;html=1;strokeColor=none;fillColor=none;align=center;verticalAlign=middle;whiteSpace=wrap;rounded=0;" vertex="1" parent="1">
          <mxGeometry x="135" y="1626" width="40" height="20" as="geometry" />
        </mxCell>
        <mxCell id="Pagb_1e_iWBXcoNiZ67y-35" value="&lt;font color=&quot;#ff0000&quot;&gt;step 6&lt;/font&gt;" style="text;html=1;strokeColor=none;fillColor=none;align=center;verticalAlign=middle;whiteSpace=wrap;rounded=0;" vertex="1" parent="1">
          <mxGeometry x="397" y="1622" width="40" height="20" as="geometry" />
        </mxCell>
        <mxCell id="Pagb_1e_iWBXcoNiZ67y-36" value="根据step5 、step7 &lt;br&gt;返回值做逻辑计算" style="edgeStyle=orthogonalEdgeStyle;html=1;align=left;spacingLeft=2;endArrow=block;rounded=0;" edge="1" parent="1">
          <mxGeometry x="0.0748" relative="1" as="geometry">
            <mxPoint x="401" y="1677.5" as="sourcePoint" />
            <Array as="points">
              <mxPoint x="401" y="1686" />
              <mxPoint x="416" y="1686" />
              <mxPoint x="416" y="1707" />
            </Array>
            <mxPoint x="401" y="1706.5" as="targetPoint" />
            <mxPoint as="offset" />
          </mxGeometry>
        </mxCell>
        <mxCell id="Pagb_1e_iWBXcoNiZ67y-37" value="" style="endArrow=classic;html=1;" edge="1" parent="1">
          <mxGeometry width="50" height="50" relative="1" as="geometry">
            <mxPoint x="225" y="1602" as="sourcePoint" />
            <mxPoint x="314" y="1664" as="targetPoint" />
          </mxGeometry>
        </mxCell>
        <mxCell id="Pagb_1e_iWBXcoNiZ67y-38" value="&lt;font color=&quot;#ff0000&quot;&gt;step 5&lt;/font&gt;" style="text;html=1;strokeColor=none;fillColor=none;align=center;verticalAlign=middle;whiteSpace=wrap;rounded=0;" vertex="1" parent="1">
          <mxGeometry x="253" y="1606" width="40" height="20" as="geometry" />
        </mxCell>
        <mxCell id="Pagb_1e_iWBXcoNiZ67y-39" value="" style="shape=table;html=1;whiteSpace=wrap;startSize=0;container=1;collapsible=0;childLayout=tableLayout;strokeColor=#333333;" vertex="1" parent="1">
          <mxGeometry x="175" y="1559" width="60" height="40" as="geometry" />
        </mxCell>
        <mxCell id="Pagb_1e_iWBXcoNiZ67y-40" value="" style="shape=partialRectangle;html=1;whiteSpace=wrap;collapsible=0;dropTarget=0;pointerEvents=0;fillColor=none;top=0;left=0;bottom=0;right=0;points=[[0,0.5],[1,0.5]];portConstraint=eastwest;" vertex="1" parent="Pagb_1e_iWBXcoNiZ67y-39">
          <mxGeometry width="60" height="40" as="geometry" />
        </mxCell>
        <mxCell id="Pagb_1e_iWBXcoNiZ67y-41" value="fleet1" style="shape=partialRectangle;html=1;whiteSpace=wrap;connectable=0;fillColor=none;top=0;left=0;bottom=0;right=0;overflow=hidden;" vertex="1" parent="Pagb_1e_iWBXcoNiZ67y-40">
          <mxGeometry width="60" height="40" as="geometry" />
        </mxCell>
        <mxCell id="Pagb_1e_iWBXcoNiZ67y-42" value="返回：递归条件终止返回值，并出栈" style="text;html=1;strokeColor=none;fillColor=none;align=center;verticalAlign=middle;whiteSpace=wrap;rounded=0;" vertex="1" parent="1">
          <mxGeometry x="293" y="1552" width="65" height="20" as="geometry" />
        </mxCell>
        <mxCell id="Pagb_1e_iWBXcoNiZ67y-43" value="" style="endArrow=classic;html=1;" edge="1" parent="1">
          <mxGeometry width="50" height="50" relative="1" as="geometry">
            <mxPoint x="395" y="1602" as="sourcePoint" />
            <mxPoint x="329" y="1662" as="targetPoint" />
          </mxGeometry>
        </mxCell>
        <mxCell id="Pagb_1e_iWBXcoNiZ67y-44" value="&lt;font color=&quot;#ff0000&quot;&gt;step 7&lt;/font&gt;" style="text;html=1;strokeColor=none;fillColor=none;align=center;verticalAlign=middle;whiteSpace=wrap;rounded=0;" vertex="1" parent="1">
          <mxGeometry x="333.5" y="1612" width="40" height="20" as="geometry" />
        </mxCell>
        <mxCell id="Pagb_1e_iWBXcoNiZ67y-45" value="&lt;font color=&quot;#ff0000&quot;&gt;step 8&lt;/font&gt;" style="text;html=1;strokeColor=none;fillColor=none;align=center;verticalAlign=middle;whiteSpace=wrap;rounded=0;" vertex="1" parent="1">
          <mxGeometry x="446" y="1664" width="40" height="20" as="geometry" />
        </mxCell>
        <mxCell id="Pagb_1e_iWBXcoNiZ67y-46" value="" style="endArrow=classic;html=1;" edge="1" parent="1">
          <mxGeometry width="50" height="50" relative="1" as="geometry">
            <mxPoint x="337" y="1715" as="sourcePoint" />
            <mxPoint x="466" y="1785" as="targetPoint" />
          </mxGeometry>
        </mxCell>
        <mxCell id="Pagb_1e_iWBXcoNiZ67y-47" value="&lt;font color=&quot;#ff0000&quot;&gt;step 9&lt;/font&gt;" style="text;html=1;strokeColor=none;fillColor=none;align=center;verticalAlign=middle;whiteSpace=wrap;rounded=0;" vertex="1" parent="1">
          <mxGeometry x="381" y="1723" width="40" height="20" as="geometry" />
        </mxCell>
        <mxCell id="Pagb_1e_iWBXcoNiZ67y-48" value="&lt;span style=&quot;color: rgb(89 , 89 , 89) ; font-family: monospace ; font-size: 13px ; text-align: justify ; background-color: rgb(247 , 247 , 247)&quot;&gt;(0,1) 出栈&lt;/span&gt;" style="text;html=1;align=center;verticalAlign=middle;resizable=0;points=[];autosize=1;" vertex="1" parent="1">
          <mxGeometry x="389" y="1743" width="83" height="18" as="geometry" />
        </mxCell>
        <mxCell id="Pagb_1e_iWBXcoNiZ67y-49" value="" style="endArrow=classic;html=1;" edge="1" parent="1">
          <mxGeometry width="50" height="50" relative="1" as="geometry">
            <mxPoint x="478" y="1786" as="sourcePoint" />
            <mxPoint x="559" y="1703" as="targetPoint" />
          </mxGeometry>
        </mxCell>
        <mxCell id="Pagb_1e_iWBXcoNiZ67y-50" value="&lt;font color=&quot;#ff0000&quot;&gt;step 10&lt;/font&gt;" style="text;html=1;strokeColor=none;fillColor=none;align=center;verticalAlign=middle;whiteSpace=wrap;rounded=0;" vertex="1" parent="1">
          <mxGeometry x="493" y="1712" width="59" height="20" as="geometry" />
        </mxCell>
        <mxCell id="Pagb_1e_iWBXcoNiZ67y-51" value="&lt;span style=&quot;color: rgb(89 , 89 , 89) ; font-family: monospace ; font-size: 13px ; text-align: justify ; background-color: rgb(247 , 247 , 247)&quot;&gt;(2,2) 入栈&lt;/span&gt;" style="text;html=1;align=center;verticalAlign=middle;resizable=0;points=[];autosize=1;" vertex="1" parent="1">
          <mxGeometry x="496" y="1728" width="83" height="18" as="geometry" />
        </mxCell>
        <mxCell id="Pagb_1e_iWBXcoNiZ67y-52" value="" style="shape=table;html=1;whiteSpace=wrap;startSize=0;container=1;collapsible=0;childLayout=tableLayout;strokeColor=#333333;" vertex="1" parent="1">
          <mxGeometry x="563.5" y="1661" width="60" height="40" as="geometry" />
        </mxCell>
        <mxCell id="Pagb_1e_iWBXcoNiZ67y-53" value="" style="shape=partialRectangle;html=1;whiteSpace=wrap;collapsible=0;dropTarget=0;pointerEvents=0;fillColor=none;top=0;left=0;bottom=0;right=0;points=[[0,0.5],[1,0.5]];portConstraint=eastwest;" vertex="1" parent="Pagb_1e_iWBXcoNiZ67y-52">
          <mxGeometry width="60" height="40" as="geometry" />
        </mxCell>
        <mxCell id="Pagb_1e_iWBXcoNiZ67y-54" value="fleet3" style="shape=partialRectangle;html=1;whiteSpace=wrap;connectable=0;fillColor=none;top=0;left=0;bottom=0;right=0;overflow=hidden;" vertex="1" parent="Pagb_1e_iWBXcoNiZ67y-53">
          <mxGeometry width="60" height="40" as="geometry" />
        </mxCell>
        <mxCell id="Pagb_1e_iWBXcoNiZ67y-55" value="" style="endArrow=classic;html=1;" edge="1" parent="1">
          <mxGeometry width="50" height="50" relative="1" as="geometry">
            <mxPoint x="603" y="1701" as="sourcePoint" />
            <mxPoint x="522" y="1784" as="targetPoint" />
          </mxGeometry>
        </mxCell>
        <mxCell id="Pagb_1e_iWBXcoNiZ67y-56" value="&lt;font color=&quot;#ff0000&quot;&gt;step 11&lt;/font&gt;" style="text;html=1;strokeColor=none;fillColor=none;align=center;verticalAlign=middle;whiteSpace=wrap;rounded=0;" vertex="1" parent="1">
          <mxGeometry x="541" y="1746" width="59" height="20" as="geometry" />
        </mxCell>
        <mxCell id="Pagb_1e_iWBXcoNiZ67y-57" value="&lt;span style=&quot;color: rgb(89 , 89 , 89) ; font-family: monospace ; font-size: 13px ; text-align: justify ; background-color: rgb(247 , 247 , 247)&quot;&gt;(2,2) 出栈&lt;/span&gt;" style="text;html=1;align=center;verticalAlign=middle;resizable=0;points=[];autosize=1;" vertex="1" parent="1">
          <mxGeometry x="541" y="1763" width="83" height="18" as="geometry" />
        </mxCell>
        <mxCell id="Pagb_1e_iWBXcoNiZ67y-58" value="&amp;nbsp;" style="edgeStyle=orthogonalEdgeStyle;html=1;align=left;spacingLeft=2;endArrow=block;rounded=0;entryX=1;entryY=0;" edge="1" parent="1">
          <mxGeometry relative="1" as="geometry">
            <mxPoint x="569" y="1805" as="sourcePoint" />
            <Array as="points">
              <mxPoint x="594" y="1805" />
            </Array>
            <mxPoint x="574" y="1825" as="targetPoint" />
          </mxGeometry>
        </mxCell>
        <mxCell id="Pagb_1e_iWBXcoNiZ67y-59" value="step9 、step11&lt;br&gt;&amp;nbsp;返回值做计算" style="edgeLabel;html=1;align=center;verticalAlign=middle;resizable=0;points=[];" vertex="1" connectable="0" parent="Pagb_1e_iWBXcoNiZ67y-58">
          <mxGeometry x="-0.2308" y="-9" relative="1" as="geometry">
            <mxPoint x="49" y="13" as="offset" />
          </mxGeometry>
        </mxCell>
        <mxCell id="Pagb_1e_iWBXcoNiZ67y-60" value="&lt;font color=&quot;#ff0000&quot;&gt;step 12&lt;/font&gt;" style="text;html=1;strokeColor=none;fillColor=none;align=center;verticalAlign=middle;whiteSpace=wrap;rounded=0;" vertex="1" parent="1">
          <mxGeometry x="564" y="1788" width="59" height="20" as="geometry" />
        </mxCell>
        <mxCell id="Pagb_1e_iWBXcoNiZ67y-61" value="" style="endArrow=classic;html=1;exitX=0.408;exitY=-0.1;exitDx=0;exitDy=0;exitPerimeter=0;" edge="1" parent="1">
          <mxGeometry width="50" height="50" relative="1" as="geometry">
            <mxPoint x="479.1199999999999" y="1831" as="sourcePoint" />
            <mxPoint x="620" y="1926" as="targetPoint" />
          </mxGeometry>
        </mxCell>
        <mxCell id="Pagb_1e_iWBXcoNiZ67y-62" value="&lt;span style=&quot;color: rgb(89 , 89 , 89) ; font-family: monospace ; font-size: 13px ; text-align: justify ; background-color: rgb(247 , 247 , 247)&quot;&gt;(0,2)出栈&lt;/span&gt;" style="text;html=1;align=center;verticalAlign=middle;resizable=0;points=[];autosize=1;" vertex="1" parent="1">
          <mxGeometry x="566.25" y="1848" width="75" height="18" as="geometry" />
        </mxCell>
        <mxCell id="Pagb_1e_iWBXcoNiZ67y-63" value="&lt;font color=&quot;#ff0000&quot;&gt;step 13&lt;/font&gt;" style="text;html=1;strokeColor=none;fillColor=none;align=center;verticalAlign=middle;whiteSpace=wrap;rounded=0;" vertex="1" parent="1">
          <mxGeometry x="526" y="1847" width="49" height="20" as="geometry" />
        </mxCell>
        <mxCell id="Pagb_1e_iWBXcoNiZ67y-64" value="" style="endArrow=classic;html=1;" edge="1" parent="1">
          <mxGeometry width="50" height="50" relative="1" as="geometry">
            <mxPoint x="641.25" y="1923" as="sourcePoint" />
            <mxPoint x="780" y="1842" as="targetPoint" />
          </mxGeometry>
        </mxCell>
        <mxCell id="Pagb_1e_iWBXcoNiZ67y-65" value="&lt;span style=&quot;color: rgb(89 , 89 , 89) ; font-family: monospace ; font-size: 13px ; text-align: justify ; background-color: rgb(247 , 247 , 247)&quot;&gt;(3,5)入栈&lt;/span&gt;" style="text;html=1;align=center;verticalAlign=middle;resizable=0;points=[];autosize=1;" vertex="1" parent="1">
          <mxGeometry x="722" y="1902" width="75" height="18" as="geometry" />
        </mxCell>
        <mxCell id="Pagb_1e_iWBXcoNiZ67y-66" value="&lt;font color=&quot;#ff0000&quot;&gt;step 14&lt;/font&gt;" style="text;html=1;strokeColor=none;fillColor=none;align=center;verticalAlign=middle;whiteSpace=wrap;rounded=0;" vertex="1" parent="1">
          <mxGeometry x="683" y="1902" width="49" height="20" as="geometry" />
        </mxCell>
      </root>
    </mxGraphModel>
  </diagram>
</mxfile>
